<svg width="14" height="13" viewBox="0 0 14 13" fill="none" xmlns="http://www.w3.org/2000/svg">
<path fill-rule="evenodd" clip-rule="evenodd" d="M4.21591 0.375L12.5682 0.375C12.7159 0.375 12.8575 0.433665 12.9619 0.538088C13.0663 0.642512 13.125 0.784141 13.125 0.931818V9.28409C13.125 9.59161 12.8757 9.84091 12.5682 9.84091C12.2607 9.84091 12.0114 9.59161 12.0114 9.28409V2.2761L1.82555 12.4619C1.6081 12.6794 1.25554 12.6794 1.03809 12.4619C0.820637 12.2445 0.820637 11.8919 1.03809 11.6745L11.2239 1.48864L4.21591 1.48864C3.90839 1.48864 3.65909 1.23934 3.65909 0.931818C3.65909 0.624296 3.90839 0.375 4.21591 0.375Z" fill="#FBFBFB"/>
</svg>
